<svg version="1.1" id="Layer_1" xmlns="http://www.w3.org/2000/svg" xmlns:xlink="http://www.w3.org/1999/xlink" x="0px" y="0px"
	 width="100%" viewBox="0 0 190 187" enable-background="new 0 0 190 187" xml:space="preserve">
<path fill="#000000" opacity="1.000000" stroke="none" 
	d="
M118.000000,188.000000 
	C78.666672,188.000000 39.833340,188.000000 1.000005,188.000000 
	C1.000003,125.666672 1.000003,63.333347 1.000002,1.000014 
	C64.333321,1.000009 127.666649,1.000009 190.999969,1.000005 
	C190.999985,63.333317 190.999985,125.666634 191.000000,187.999969 
	C166.833328,188.000000 142.666672,188.000000 118.000000,188.000000 
M122.463058,151.826462 
	C122.760735,151.612839 122.873146,151.326447 123.064728,150.486526 
	C123.350426,150.264206 123.636116,150.041885 124.570251,149.714920 
	C126.076065,148.156738 127.581886,146.598572 129.717102,144.724640 
	C130.768921,141.498474 131.820740,138.272324 133.007263,134.108810 
	C132.943710,126.738327 132.880173,119.367844 132.944916,111.077988 
	C132.908264,107.040237 132.871597,103.002480 132.939636,98.560692 
	C132.939636,98.560692 132.996948,98.147278 133.689636,97.974930 
	C135.148209,97.324600 136.606781,96.674263 137.999603,96.007774 
	C137.999603,96.007774 137.999161,96.075485 138.745041,96.005608 
	C140.517838,95.368828 142.290634,94.732048 144.784348,93.998901 
	C146.879532,93.006325 148.974731,92.013748 151.781342,90.922211 
	C160.120071,86.904160 168.054764,82.377762 173.000610,74.050949 
	C173.000610,74.050949 173.015259,74.049614 173.469788,73.843361 
	C173.762070,73.641327 173.929245,73.363930 174.023926,73.023186 
	C174.023926,73.023186 174.006088,72.972206 174.553970,72.692612 
	C175.037094,71.797562 175.520218,70.902504 176.002441,70.001930 
	C176.002441,70.001930 176.008499,70.001617 176.595642,69.608841 
	C184.871857,53.073856 181.157913,37.440506 172.316193,22.594938 
	C172.415054,34.333328 171.881088,45.978466 166.900192,57.617100 
	C165.946396,59.410233 164.992584,61.203365 163.559906,63.222923 
	C163.374435,63.516350 163.188965,63.809776 162.422333,64.411964 
	C157.036453,70.522980 150.451233,74.943161 142.345825,78.071762 
	C141.553223,78.374260 140.760635,78.676765 140.002884,79.001335 
	C140.002884,79.001335 139.979904,78.966835 139.131989,79.016937 
	C133.691925,79.372437 128.255219,79.916199 122.810532,80.013824 
	C119.467957,80.073784 117.985359,81.111099 118.022179,84.647972 
	C118.190414,100.804909 118.193008,116.963570 118.133202,133.712280 
	C118.072205,134.110352 118.011200,134.508408 117.347710,135.213089 
	C113.554527,139.470627 109.761345,143.728180 106.001373,148.002502 
	C106.001373,148.002502 105.989510,147.967651 105.503899,148.146912 
	C105.311539,148.425522 105.119171,148.704132 104.508041,149.185532 
	C104.247551,149.376007 104.071976,149.626099 103.499687,150.125656 
	C103.326660,150.413818 103.153625,150.701996 103.000000,150.999863 
	C103.000000,150.999863 102.979477,150.987732 102.386665,151.290802 
	C100.310005,153.251328 98.233345,155.211853 96.069290,157.254898 
	C94.500435,155.996109 93.264595,155.004517 92.035187,153.968338 
	C92.035187,153.968338 91.990395,153.973099 91.833755,153.511230 
	C91.643425,153.219208 91.375557,153.049744 91.034225,152.960999 
	C91.034225,152.960999 90.992363,152.964645 90.720116,152.357178 
	C85.138535,146.550903 79.556946,140.744629 73.877129,134.495865 
	C73.877129,134.495865 73.746010,134.061981 73.867538,133.571793 
	C73.852020,133.404648 73.836502,133.237503 73.945656,132.131332 
	C73.872704,117.393654 73.799751,102.655975 73.781380,87.074059 
	C73.791435,80.239632 73.778915,80.476440 67.047768,80.120659 
	C61.022617,79.802208 55.029160,78.884117 48.386543,77.895782 
	C38.273525,73.472191 29.517809,67.512779 24.756519,56.535130 
	C24.597910,56.228199 24.352350,56.027882 24.005568,55.992001 
	C24.005568,55.992001 24.064043,55.980671 23.940220,55.207355 
	C21.845076,44.858082 19.749931,34.508808 17.657858,24.174698 
	C17.706434,24.138056 17.000381,24.398003 16.772322,24.882807 
	C11.897931,35.244694 9.518817,46.248737 11.299863,57.507221 
	C12.152554,62.897308 15.666726,67.866364 17.999765,72.998657 
	C17.999765,72.998657 17.969442,73.020599 18.062077,73.703491 
	C20.026190,75.811272 21.990303,77.919044 23.989788,80.008041 
	C23.989788,80.008041 23.962509,80.023758 24.145672,80.494598 
	C24.422123,80.673561 24.698574,80.852524 24.999735,80.999268 
	C24.999735,80.999268 24.969501,81.027168 25.145489,81.487411 
	C25.338764,81.782372 25.610540,81.950150 25.953915,82.053108 
	C25.953915,82.053108 26.015951,82.043655 26.276381,82.617035 
	C27.511650,83.388016 28.746920,84.159004 29.981253,85.019264 
	C29.981253,85.019264 30.070536,85.020218 30.220985,85.443588 
	C30.419888,85.725960 30.686691,85.824203 31.473244,85.906204 
	C31.473244,85.906204 31.939566,86.028244 32.135151,86.479698 
	C32.330349,86.773567 32.603378,86.938988 32.959404,87.050972 
	C32.959404,87.050972 33.034416,87.045830 33.199780,87.460236 
	C33.399067,87.739960 33.664131,87.833527 34.459736,87.905251 
	C34.459736,87.905251 34.940331,88.014946 35.260548,88.547157 
	C36.207184,88.929214 37.153820,89.311272 38.517132,89.865242 
	C38.517132,89.865242 38.949986,89.990959 39.173897,90.445503 
	C39.476795,90.552048 39.779694,90.658585 40.496811,90.910995 
	C40.496811,90.910995 40.926941,90.999535 41.347195,91.564934 
	C43.557018,92.402802 45.766838,93.240669 47.993294,94.023064 
	C47.993294,94.023064 47.939247,94.043900 48.339607,94.652939 
	C50.218594,95.104919 52.097576,95.556900 53.978844,96.027893 
	C53.978844,96.027893 53.997883,96.025459 54.386131,96.603134 
	C55.925045,97.105095 57.463959,97.607056 59.043865,98.002785 
	C59.043865,98.002785 58.937634,97.961777 58.955624,98.909042 
	C58.967339,111.202705 58.940426,123.496674 59.034985,135.789703 
	C59.048233,137.511765 59.657227,139.229233 59.984287,141.022186 
	C59.984287,141.022186 60.057625,141.028397 60.224522,141.469650 
	C60.413338,141.741562 60.668644,141.916473 60.989689,142.008911 
	C60.989689,142.008911 61.004269,142.011520 61.082943,142.700104 
	C64.720421,146.493469 68.357887,150.286819 72.186493,154.499619 
	C72.373947,154.756912 72.618347,154.936890 73.102226,155.538010 
	C73.386803,155.738403 73.671387,155.938797 74.042191,156.537338 
	C74.042191,156.537338 74.153648,156.929184 74.152863,157.458237 
	C74.431564,157.647797 74.710266,157.837357 74.997101,158.000000 
	C74.997101,158.000000 74.981163,158.029236 75.265495,158.623474 
	C77.212959,160.455353 79.160431,162.287216 81.327103,164.587265 
	C81.854065,165.015579 82.381035,165.443893 82.880478,165.960800 
	C82.880478,165.960800 82.963516,166.000336 83.163155,166.474487 
	C83.442741,166.661926 83.722328,166.849380 84.014786,166.991669 
	C84.014786,166.991669 83.973686,167.014359 84.162979,167.480453 
	C84.435432,167.665085 84.707886,167.849731 85.009270,167.991913 
	C85.009270,167.991913 84.958382,167.999084 85.141716,168.488998 
	C85.428139,168.673874 85.714569,168.858734 86.012505,168.985809 
	C86.012505,168.985809 85.955147,168.999405 86.162201,169.484573 
	C86.444366,169.686340 86.726532,169.888092 87.335381,170.666306 
	C90.121002,173.745010 92.906624,176.823715 96.131721,180.388138 
	C97.302147,178.646957 98.162857,177.366501 99.491982,175.865204 
	C99.674042,175.580246 99.856094,175.295303 100.472801,174.806427 
	C100.744492,174.610077 100.920914,174.349274 101.563187,173.759521 
	C102.379997,172.848511 103.196800,171.937515 104.455513,170.799561 
	C104.730064,170.594193 104.921547,170.328873 105.483238,169.829453 
	C105.770180,169.636505 105.939789,169.369110 106.044167,169.040115 
	C106.044167,169.040115 106.030182,168.988297 106.630997,168.713913 
	C109.054863,166.147537 111.478729,163.581161 114.037247,161.005569 
	C114.037247,161.005569 114.079170,160.877274 114.496986,160.748154 
	C114.757622,160.537064 114.837296,160.271545 114.897011,159.522369 
	C114.897011,159.522369 115.013641,159.078979 115.678612,158.962112 
	C116.792877,157.650070 117.907143,156.338028 119.000412,154.999725 
	C119.000412,154.999725 119.015106,155.027405 119.500458,154.862503 
	C119.678032,154.580627 119.855614,154.298767 119.999130,153.999008 
	C119.999130,153.999008 120.018158,154.032318 120.488792,153.847549 
	C120.664902,153.569473 120.841011,153.291382 120.999931,152.999863 
	C120.999931,152.999863 121.014214,153.016403 121.488289,152.844971 
	C121.665825,152.568863 121.843361,152.292755 121.999931,152.000000 
	C121.999931,152.000000 122.019691,152.019302 122.463058,151.826462 
z"/>
<path fill="#044AAB" opacity="1.000000" stroke="none" 
	d="
M24.767138,57.021618 
	C29.517809,67.512779 38.273525,73.472191 48.826286,78.333351 
	C50.989342,82.502609 49.605267,84.366158 45.838791,85.654633 
	C43.667377,86.397453 41.931023,88.412018 39.736465,89.887085 
	C39.299385,89.943657 39.124687,89.967308 38.949986,89.990959 
	C38.949986,89.990959 38.517132,89.865242 38.097534,89.558304 
	C36.765404,88.839233 35.852867,88.427086 34.940331,88.014946 
	C34.940331,88.014946 34.459736,87.905251 34.088806,87.678650 
	C33.515541,87.273766 33.287720,87.138359 33.034416,87.045830 
	C33.034416,87.045830 32.959404,87.050972 32.809998,86.832886 
	C32.448357,86.384727 32.208015,86.189209 31.939566,86.028244 
	C31.939566,86.028244 31.473244,85.906204 31.103348,85.682510 
	C30.533512,85.280815 30.312540,85.134621 30.070536,85.020218 
	C30.070536,85.020218 29.981253,85.019264 29.846252,84.683975 
	C28.479483,83.580345 27.247717,82.812004 26.015951,82.043655 
	C26.015951,82.043655 25.953915,82.053108 25.814838,81.839584 
	C25.467108,81.394867 25.231688,81.195236 24.969501,81.027168 
	C24.969501,81.027168 24.999735,80.999268 24.840328,80.826508 
	C24.468065,80.413406 24.228596,80.203407 23.962509,80.023758 
	C23.962509,80.023758 23.989788,80.008041 23.952278,79.708252 
	C24.236658,75.135101 20.993412,74.179893 17.969442,73.020599 
	C17.969442,73.020599 17.999765,72.998657 17.931376,72.641434 
	C16.120342,67.282219 14.128264,62.349445 12.714633,57.256126 
	C11.600289,53.241138 11.061481,48.950161 14.644299,45.643745 
	C15.529203,44.827103 17.098131,44.002731 18.071018,44.257454 
	C18.912514,44.477776 19.419695,46.192249 19.960365,47.301941 
	C21.361881,50.178467 22.700386,53.085697 24.064043,55.980671 
	C24.064043,55.980671 24.005568,55.992001 24.115353,56.158760 
	C24.382776,56.575481 24.563444,56.807514 24.767138,57.021618 
z"/>
<path fill="#0448A7" opacity="1.000000" stroke="none" 
	d="
M39.998844,89.854172 
	C41.931023,88.412018 43.667377,86.397453 45.838791,85.654633 
	C49.605267,84.366158 50.989342,82.502609 49.143875,78.500755 
	C55.029160,78.884117 61.022617,79.802208 67.047768,80.120659 
	C73.778915,80.476440 73.791435,80.239632 73.579323,87.784378 
	C72.945015,93.011147 72.512756,97.527603 71.838638,102.198959 
	C71.077133,102.905891 70.557495,103.457916 69.870438,104.187447 
	C69.475807,104.597992 69.241173,104.823296 68.687889,105.162567 
	C66.598854,106.846672 64.821053,108.409096 63.024628,109.988441 
	C63.005997,110.005371 62.966438,110.036522 62.805992,110.188080 
	C62.434868,110.545059 62.229694,110.755852 62.016014,110.984497 
	C62.002003,110.996994 61.971424,111.018799 61.719986,110.747559 
	C60.624912,106.304810 59.781273,102.133293 58.937634,97.961777 
	C58.937634,97.961777 59.043865,98.002785 58.778549,97.808609 
	C57.008118,97.084785 55.502998,96.555122 53.997883,96.025459 
	C53.997883,96.025459 53.978844,96.027893 53.821793,95.764755 
	C51.756245,95.015701 49.847744,94.529800 47.939247,94.043900 
	C47.939247,94.043900 47.993294,94.023064 47.817833,93.786575 
	C45.403896,92.699898 43.165417,91.849716 40.926941,90.999527 
	C40.926941,90.999535 40.496811,90.910995 40.270828,90.610077 
	C40.044842,90.309158 39.998844,89.854172 39.998844,89.854172 
z"/>
<path fill="#0649A6" opacity="1.000000" stroke="none" 
	d="
M172.983810,74.069885 
	C168.054764,82.377762 160.120071,86.904160 151.074310,90.901093 
	C149.218475,90.570648 148.069672,90.261314 146.693039,89.734146 
	C144.989670,88.010162 143.514114,86.504005 141.909622,84.669106 
	C141.180420,82.549187 140.580170,80.758011 139.979919,78.966835 
	C139.979904,78.966835 140.002884,79.001335 140.301132,78.953568 
	C141.406876,78.661621 142.214355,78.417450 143.021851,78.173279 
	C150.451233,74.943161 157.036453,70.522980 162.820084,64.578751 
	C166.473160,67.853653 169.728485,70.961769 172.983810,74.069885 
z"/>
<path fill="#0249AB" opacity="1.000000" stroke="none" 
	d="
M68.999123,105.040871 
	C69.241173,104.823296 69.475807,104.597992 70.218887,104.192734 
	C71.429901,104.063744 72.125046,104.106964 72.826546,104.540024 
	C71.897385,109.635513 70.961861,114.341171 69.916962,119.340347 
	C70.832153,124.093620 71.856720,128.553360 72.910011,133.041290 
	C72.938736,133.069458 72.998550,133.123322 73.110962,133.288284 
	C73.381042,133.670364 73.555252,133.873276 73.746010,134.061981 
	C73.746010,134.061981 73.877129,134.495865 73.775192,135.024216 
	C69.238167,142.764542 66.713936,144.051453 61.004269,142.011520 
	C61.004269,142.011520 60.989689,142.008911 60.860653,141.816422 
	C60.538578,141.389618 60.313911,141.191116 60.057625,141.028397 
	C60.057625,141.028397 59.984287,141.022186 59.998928,140.521118 
	C60.015541,137.202347 59.835094,134.370316 60.055614,131.569824 
	C60.595642,124.711723 61.320778,117.868195 61.971428,111.018799 
	C61.971424,111.018799 62.002003,110.996994 62.177551,110.834496 
	C62.565926,110.468254 62.770370,110.256432 62.966438,110.036522 
	C62.966438,110.036522 63.005997,110.005371 63.350754,109.888794 
	C65.463387,108.195099 67.231255,106.617989 68.999123,105.040871 
z"/>
<path fill="#014AAB" opacity="1.000000" stroke="none" 
	d="
M132.996948,98.147278 
	C132.996948,98.147278 132.939636,98.560692 132.742432,99.008743 
	C132.040771,103.354141 131.536301,107.251480 130.792587,110.985306 
	C130.045349,110.554810 129.537369,110.287827 128.899521,109.705109 
	C125.856033,106.248825 122.942398,103.108261 120.015045,99.535576 
	C120.032715,89.918159 127.257263,82.629837 137.163681,82.201721 
	C137.930069,82.942810 138.521973,83.447830 139.285461,84.092789 
	C139.681229,84.425285 139.895340,84.628433 139.992523,85.176804 
	C137.483917,90.184143 140.986801,91.044228 144.130127,92.363632 
	C144.106583,92.605995 144.047516,93.089401 143.697113,93.166992 
	C141.564209,94.188225 139.781677,95.131859 137.999161,96.075485 
	C137.999161,96.075485 137.999603,96.007774 137.662170,96.028358 
	C135.882156,96.748390 134.439545,97.447838 132.996948,98.147278 
z"/>
<path fill="#024AAD" opacity="1.000000" stroke="none" 
	d="
M115.013641,159.078979 
	C115.013641,159.078979 114.897011,159.522369 114.679970,159.872192 
	C114.293007,160.415848 114.165085,160.634262 114.079170,160.877274 
	C114.079170,160.877274 114.037247,161.005569 113.587936,161.010086 
	C107.703979,162.415146 104.884583,159.853806 103.737747,154.789856 
	C103.452400,153.529861 103.230530,152.255493 102.979477,150.987732 
	C102.979477,150.987732 103.000000,150.999863 103.179489,150.841293 
	C103.599953,150.461700 103.807404,150.212738 103.981323,149.935837 
	C104.071976,149.626099 104.247551,149.376007 104.922470,148.945938 
	C105.595192,148.496109 105.812729,148.249878 105.989510,147.967651 
	C105.989510,147.967651 106.001373,148.002502 106.299973,147.876740 
	C110.734505,144.502289 114.870438,141.253586 119.002960,138.001266 
	C118.999535,137.997635 118.990425,137.991852 119.177292,138.174637 
	C119.636238,138.578033 119.908325,138.798660 120.315109,139.148193 
	C120.629478,139.448975 120.809402,139.620529 121.112022,140.147003 
	C122.130241,143.607971 123.026024,146.713760 123.921806,149.819550 
	C123.636116,150.041885 123.350426,150.264206 122.782120,150.887970 
	C122.304672,151.509766 122.144737,151.753067 122.019691,152.019302 
	C122.019691,152.019302 121.999931,152.000000 121.819229,152.150269 
	C121.395844,152.509003 121.187744,152.747620 121.014214,153.016403 
	C121.014214,153.016403 120.999931,152.999863 120.818024,153.151581 
	C120.395020,153.516556 120.189034,153.759552 120.018158,154.032318 
	C120.018158,154.032318 119.999130,153.999008 119.823753,154.152527 
	C119.403770,154.517075 119.192680,154.757523 119.015106,155.027405 
	C119.015106,155.027405 119.000412,154.999725 118.677094,155.093079 
	C117.240395,156.483932 116.127014,157.781464 115.013641,159.078979 
z"/>
<path fill="#024AAD" opacity="1.000000" stroke="none" 
	d="
M82.908005,165.872223 
	C82.381035,165.443893 81.854065,165.015579 81.241096,164.070541 
	C80.061264,160.634811 79.228439,157.424133 74.981163,158.029236 
	C74.981163,158.029236 74.997101,158.000000 74.870415,157.818939 
	C74.559074,157.391632 74.362381,157.155396 74.153648,156.929184 
	C74.153648,156.929184 74.042191,156.537338 73.849747,156.133789 
	C73.411438,155.500015 73.165558,155.269775 72.919685,155.039551 
	C72.618347,154.936890 72.373947,154.756912 72.022385,153.922363 
	C71.229813,151.638153 69.941925,149.854156 70.130180,148.242584 
	C70.400452,145.928818 71.225685,143.157135 72.832947,141.722427 
	C73.765915,140.889618 76.950706,141.842255 78.648697,142.816605 
	C80.259666,143.741043 81.693375,145.555969 82.429321,147.305603 
	C84.086342,151.244965 87.102982,152.649673 90.992363,152.964645 
	C90.992363,152.964645 91.034225,152.960999 91.165375,153.168732 
	C91.495712,153.612671 91.727005,153.811554 91.990395,153.973099 
	C91.990395,153.973099 92.035187,153.968338 91.945137,154.334305 
	C88.872719,158.424255 85.890358,162.148239 82.908005,165.872223 
z"/>
<path fill="#034AAA" opacity="1.000000" stroke="none" 
	d="
M105.029961,170.003601 
	C104.921547,170.328873 104.730064,170.594193 103.928574,171.008621 
	C102.601776,172.153137 101.801918,173.088577 101.002060,174.024017 
	C100.920914,174.349274 100.744492,174.610077 100.064148,175.065552 
	C99.412392,175.551529 99.201744,175.805328 99.023575,176.086060 
	C98.162857,177.366501 97.302147,178.646957 96.131721,180.388138 
	C92.906624,176.823715 90.121002,173.745010 87.027328,170.167480 
	C86.464569,169.445557 86.209854,169.222488 85.955147,168.999405 
	C85.955147,168.999405 86.012505,168.985809 85.859283,168.815384 
	C85.488708,168.392761 85.239479,168.177475 84.958382,167.999084 
	C84.958382,167.999084 85.009270,167.991913 85.011124,167.750610 
	C85.014816,167.334106 85.016663,167.158905 85.260178,166.755432 
	C86.807541,165.275650 88.108643,164.019287 89.419899,162.773605 
	C92.046097,160.278763 94.605240,157.199738 98.769699,158.905746 
	C103.148758,160.699631 106.191971,163.771164 106.030182,168.988297 
	C106.030182,168.988297 106.044167,169.040115 105.835083,169.173279 
	C105.393814,169.510178 105.195137,169.742569 105.029961,170.003601 
z"/>
<path fill="#034AAA" opacity="1.000000" stroke="none" 
	d="
M172.992218,74.060417 
	C169.728485,70.961769 166.473160,67.853653 163.110657,64.424370 
	C163.188965,63.809776 163.374435,63.516350 164.161194,63.059341 
	C169.129578,61.943233 171.841614,59.928188 169.948425,54.535423 
	C170.993454,50.061054 171.975418,45.967388 173.295639,41.992012 
	C179.436066,45.304058 181.149780,49.931091 179.261169,57.202053 
	C178.154465,61.462734 177.091263,65.734718 176.008499,70.001617 
	C176.008499,70.001617 176.002441,70.001930 175.756897,70.187637 
	C175.009598,71.239639 174.507843,72.105927 174.006088,72.972214 
	C174.006088,72.972206 174.023926,73.023186 173.817307,73.169273 
	C173.381821,73.535461 173.183334,73.780212 173.015259,74.049614 
	C173.015259,74.049614 173.000610,74.050949 172.992218,74.060417 
z"/>
<path fill="#0C428E" opacity="1.000000" stroke="none" 
	d="
M136.989182,81.965652 
	C127.257263,82.629837 120.032715,89.918159 120.003403,99.930374 
	C119.993866,101.807648 119.982246,102.858002 119.965683,104.366653 
	C118.855766,111.909714 124.296112,118.755875 120.762047,125.980843 
	C120.573524,126.366234 121.552528,127.322716 121.952682,128.234619 
	C121.917343,128.455902 121.847771,128.898651 121.630981,129.121353 
	C120.361168,130.603241 119.308151,131.862427 118.255127,133.121613 
	C118.193008,116.963570 118.190414,100.804909 118.022179,84.647972 
	C117.985359,81.111099 119.467957,80.073784 122.810532,80.013824 
	C128.255219,79.916199 133.691925,79.372437 139.555954,78.991882 
	C140.580170,80.758011 141.180420,82.549187 141.585342,84.643837 
	C140.959808,84.912262 140.529587,84.877220 140.099380,84.842178 
	C139.895340,84.628433 139.681229,84.425285 139.109070,83.857147 
	C138.170456,82.976265 137.579819,82.470955 136.989182,81.965652 
M124.540688,84.581573 
	C123.544121,83.980049 122.547554,83.378517 121.550987,82.776993 
	C121.264305,83.907166 120.977623,85.037331 120.690941,86.167503 
	C121.880623,85.800583 123.070305,85.433662 124.540688,84.581573 
z"/>
<path fill="#0D4798" opacity="1.000000" stroke="none" 
	d="
M24.002132,55.594013 
	C22.700386,53.085697 21.361881,50.178467 19.960365,47.301941 
	C19.419695,46.192249 18.912514,44.477776 18.071018,44.257454 
	C17.098131,44.002731 15.529203,44.827103 14.644299,45.643745 
	C11.061481,48.950161 11.600289,53.241138 12.714633,57.256126 
	C14.128264,62.349445 16.120342,67.282219 17.919239,72.655167 
	C15.666726,67.866364 12.152554,62.897308 11.299863,57.507221 
	C9.518817,46.248737 11.897931,35.244694 16.772322,24.882807 
	C17.000381,24.398003 17.706434,24.138056 17.657858,24.174698 
	C19.749931,34.508808 21.845076,44.858082 24.002132,55.594013 
z"/>
<path fill="#044BAB" opacity="1.000000" stroke="none" 
	d="
M118.194168,133.416946 
	C119.308151,131.862427 120.361168,130.603241 121.936722,129.190247 
	C125.648376,127.683662 128.837479,126.330864 132.044327,125.419250 
	C132.332245,128.922348 132.602402,131.984253 132.872559,135.046158 
	C131.820740,138.272324 130.768921,141.498474 129.084473,144.747742 
	C125.964424,143.111160 123.477013,141.451492 120.989594,139.791824 
	C120.809402,139.620529 120.629478,139.448975 120.117630,138.973083 
	C119.520454,138.443314 119.255440,138.217575 118.990425,137.991852 
	C118.990425,137.991852 118.999535,137.997635 118.923294,137.683319 
	C118.548096,136.548172 118.249146,135.727325 117.950195,134.906479 
	C118.011200,134.508408 118.072205,134.110352 118.194168,133.416946 
z"/>
<path fill="#0E4899" opacity="1.000000" stroke="none" 
	d="
M176.302063,69.805229 
	C177.091263,65.734718 178.154465,61.462734 179.261169,57.202053 
	C181.149780,49.931091 179.436066,45.304058 173.311218,41.573631 
	C173.001038,34.737762 173.013535,28.438570 173.026031,22.139378 
	C181.157913,37.440506 184.871857,53.073856 176.302063,69.805229 
z"/>
<path fill="#0D4798" opacity="1.000000" stroke="none" 
	d="
M106.330589,168.851105 
	C106.191971,163.771164 103.148758,160.699631 98.769699,158.905746 
	C94.605240,157.199738 92.046097,160.278763 89.419899,162.773605 
	C88.108643,164.019287 86.807541,165.275650 84.998520,166.762726 
	C84.321350,167.003632 84.147522,167.009003 83.973686,167.014359 
	C83.973686,167.014359 84.014786,166.991669 83.845810,166.830933 
	C83.452705,166.432404 83.214928,166.209106 82.963516,166.000336 
	C82.963516,166.000336 82.880478,165.960800 82.894241,165.916504 
	C85.890358,162.148239 88.872719,158.424255 91.941925,154.356598 
	C93.264595,155.004517 94.500435,155.996109 96.069290,157.254898 
	C98.233345,155.211853 100.310005,153.251328 102.683075,151.139267 
	C103.230530,152.255493 103.452400,153.529861 103.737747,154.789856 
	C104.884583,159.853806 107.703979,162.415146 113.520615,161.014694 
	C111.478729,163.581161 109.054863,166.147537 106.330589,168.851105 
z"/>
<path fill="#0D4798" opacity="1.000000" stroke="none" 
	d="
M90.856239,152.660919 
	C87.102982,152.649673 84.086342,151.244965 82.429321,147.305603 
	C81.693375,145.555969 80.259666,143.741043 78.648697,142.816605 
	C76.950706,141.842255 73.765915,140.889618 72.832947,141.722427 
	C71.225685,143.157135 70.400452,145.928818 70.130180,148.242584 
	C69.941925,149.854156 71.229813,151.638153 71.926819,153.712646 
	C68.357887,150.286819 64.720421,146.493469 61.043606,142.355804 
	C66.713936,144.051453 69.238167,142.764542 73.824310,135.245453 
	C79.556946,140.744629 85.138535,146.550903 90.856239,152.660919 
z"/>
<path fill="#0B3670" opacity="1.000000" stroke="none" 
	d="
M70.026337,119.046822 
	C70.961861,114.341171 71.897385,109.635513 72.778374,104.260170 
	C72.509399,103.075005 72.294952,102.559532 72.080505,102.044060 
	C72.512756,97.527603 72.945015,93.011147 73.552032,88.206497 
	C73.799751,102.655975 73.872704,117.393654 73.677582,132.612183 
	C73.409508,133.093018 72.998550,133.123322 72.998550,133.123322 
	C72.998550,133.123322 72.938736,133.069458 72.906052,132.675079 
	C71.924355,127.869408 70.975342,123.458115 70.026337,119.046822 
z"/>
<path fill="#0D4798" opacity="1.000000" stroke="none" 
	d="
M61.719990,110.747559 
	C61.320778,117.868195 60.595642,124.711723 60.055614,131.569824 
	C59.835094,134.370316 60.015541,137.202347 60.002014,140.484436 
	C59.657227,139.229233 59.048233,137.511765 59.034985,135.789703 
	C58.940426,123.496674 58.967339,111.202705 58.946629,98.435410 
	C59.781273,102.133293 60.624912,106.304810 61.719990,110.747559 
z"/>
<path fill="#174993" opacity="1.000000" stroke="none" 
	d="
M172.671112,22.367157 
	C173.013535,28.438570 173.001038,34.737762 172.972961,41.455338 
	C171.975418,45.967388 170.993454,50.061054 169.747360,54.733566 
	C168.736633,55.881241 167.990051,56.450062 167.243454,57.018883 
	C171.881088,45.978466 172.415054,34.333328 172.671112,22.367157 
z"/>
<path fill="#0C428E" opacity="1.000000" stroke="none" 
	d="
M117.648956,135.059784 
	C118.249146,135.727325 118.548096,136.548172 118.926712,137.686951 
	C114.870438,141.253586 110.734505,144.502289 106.283363,147.868347 
	C109.761345,143.728180 113.554527,139.470627 117.648956,135.059784 
z"/>
<path fill="#0649A6" opacity="1.000000" stroke="none" 
	d="
M167.071823,57.317993 
	C167.990051,56.450062 168.736633,55.881241 169.684296,55.114273 
	C171.841614,59.928188 169.129578,61.943233 164.400635,62.946129 
	C164.992584,61.203365 165.946396,59.410233 167.071823,57.317993 
z"/>
<path fill="#074297" opacity="1.000000" stroke="none" 
	d="
M121.112022,140.147003 
	C123.477013,141.451492 125.964424,143.111160 128.769775,144.905609 
	C127.581886,146.598572 126.076065,148.156738 124.246033,149.767242 
	C123.026024,146.713760 122.130241,143.607971 121.112022,140.147003 
z"/>
<path fill="#0C428E" opacity="1.000000" stroke="none" 
	d="
M132.939911,134.577484 
	C132.602402,131.984253 132.332245,128.922348 132.007721,125.110786 
	C131.301956,122.571877 130.650558,120.782623 130.149109,118.694359 
	C130.533417,116.262856 130.767746,114.130371 131.022736,111.978279 
	C131.043381,111.958679 131.084869,111.919693 131.373520,111.932236 
	C132.046982,111.962303 132.431808,111.979836 132.816620,111.997360 
	C132.880173,119.367844 132.943710,126.738327 132.939911,134.577484 
z"/>
<path fill="#0D4798" opacity="1.000000" stroke="none" 
	d="
M18.015759,73.362045 
	C20.993412,74.179893 24.236658,75.135101 23.934591,79.717636 
	C21.990303,77.919044 20.026190,75.811272 18.015759,73.362045 
z"/>
<path fill="#184891" opacity="1.000000" stroke="none" 
	d="
M75.123329,158.326355 
	C79.228439,157.424133 80.061264,160.634811 81.131493,163.836456 
	C79.160431,162.287216 77.212959,160.455353 75.123329,158.326355 
z"/>
<path fill="#154996" opacity="1.000000" stroke="none" 
	d="
M132.880768,111.537674 
	C132.431808,111.979836 132.046982,111.962303 131.358231,111.739967 
	C131.054291,111.535164 131.031830,111.148819 131.031830,111.148819 
	C131.536301,107.251480 132.040771,103.354141 132.690094,99.210770 
	C132.871597,103.002480 132.908264,107.040237 132.880768,111.537674 
z"/>
<path fill="#0D4798" opacity="1.000000" stroke="none" 
	d="
M41.137070,91.282227 
	C43.165417,91.849716 45.403896,92.699898 47.809517,93.814316 
	C45.766838,93.240669 43.557018,92.402802 41.137070,91.282227 
z"/>
<path fill="#0C428E" opacity="1.000000" stroke="none" 
	d="
M144.047516,93.089401 
	C144.047516,93.089401 144.106583,92.605995 144.408188,92.254959 
	C145.446823,91.253288 146.183853,90.602638 146.920868,89.951981 
	C148.069672,90.261314 149.218475,90.570648 150.718597,90.950577 
	C148.974731,92.013748 146.879532,93.006325 144.418350,93.795761 
	C144.050735,93.424881 144.049118,93.257141 144.047516,93.089401 
z"/>
<path fill="#154996" opacity="1.000000" stroke="none" 
	d="
M143.697113,93.166992 
	C144.049118,93.257141 144.050735,93.424881 144.057892,93.843948 
	C142.290634,94.732048 140.517838,95.368828 138.372101,96.040543 
	C139.781677,95.131859 141.564209,94.188225 143.697113,93.166992 
z"/>
<path fill="#0D4798" opacity="1.000000" stroke="none" 
	d="
M48.139427,94.348419 
	C49.847744,94.529800 51.756245,95.015701 53.820652,95.755249 
	C52.097576,95.556900 50.218594,95.104919 48.139427,94.348419 
z"/>
<path fill="#0D4798" opacity="1.000000" stroke="none" 
	d="
M115.346130,159.020538 
	C116.127014,157.781464 117.240395,156.483932 118.687592,155.106201 
	C117.907143,156.338028 116.792877,157.650070 115.346130,159.020538 
z"/>
<path fill="#154996" opacity="1.000000" stroke="none" 
	d="
M133.343292,98.061111 
	C134.439545,97.447838 135.882156,96.748390 137.695053,96.036438 
	C136.606781,96.674263 135.148209,97.324600 133.343292,98.061111 
z"/>
<path fill="#0D4798" opacity="1.000000" stroke="none" 
	d="
M54.192009,96.314301 
	C55.502998,96.555122 57.008118,97.084785 58.758057,97.861725 
	C57.463959,97.607056 55.925045,97.105095 54.192009,96.314301 
z"/>
<path fill="#0D4798" opacity="1.000000" stroke="none" 
	d="
M26.146166,82.330345 
	C27.247717,82.812004 28.479483,83.580345 29.846720,84.639343 
	C28.746920,84.159004 27.511650,83.388016 26.146166,82.330345 
z"/>
<path fill="#0D4798" opacity="1.000000" stroke="none" 
	d="
M101.282623,173.891769 
	C101.801918,173.088577 102.601776,172.153137 103.707626,171.122101 
	C103.196800,171.937515 102.379997,172.848511 101.282623,173.891769 
z"/>
<path fill="#0E4899" opacity="1.000000" stroke="none" 
	d="
M174.280029,72.832413 
	C174.507843,72.105927 175.009598,71.239639 175.757355,70.190399 
	C175.520218,70.902504 175.037094,71.797562 174.280029,72.832413 
z"/>
<path fill="#0D4798" opacity="1.000000" stroke="none" 
	d="
M35.100441,88.281052 
	C35.852867,88.427086 36.765404,88.839233 37.889198,89.472351 
	C37.153820,89.311272 36.207184,88.929214 35.100441,88.281052 
z"/>
<path fill="#0C428E" opacity="1.000000" stroke="none" 
	d="
M142.683838,78.122520 
	C142.214355,78.417450 141.406876,78.661621 140.283707,78.942535 
	C140.760635,78.676765 141.553223,78.374260 142.683838,78.122520 
z"/>
<path fill="#0D4798" opacity="1.000000" stroke="none" 
	d="
M91.912079,153.742157 
	C91.727005,153.811554 91.495712,153.612671 91.163330,153.189636 
	C91.375557,153.049744 91.643425,153.219208 91.912079,153.742157 
z"/>
<path fill="#0D4798" opacity="1.000000" stroke="none" 
	d="
M73.010956,155.288788 
	C73.165558,155.269775 73.411438,155.500015 73.806641,155.934723 
	C73.671387,155.938797 73.386803,155.738403 73.010956,155.288788 
z"/>
<path fill="#0D4798" opacity="1.000000" stroke="none" 
	d="
M119.257782,154.944946 
	C119.192680,154.757523 119.403770,154.517075 119.840790,154.161469 
	C119.855614,154.298767 119.678032,154.580627 119.257782,154.944946 
z"/>
<path fill="#0D4798" opacity="1.000000" stroke="none" 
	d="
M120.253479,153.939941 
	C120.189034,153.759552 120.395020,153.516556 120.826614,153.158295 
	C120.841011,153.291382 120.664902,153.569473 120.253479,153.939941 
z"/>
<path fill="#0D4798" opacity="1.000000" stroke="none" 
	d="
M99.257782,175.975632 
	C99.201744,175.805328 99.412392,175.551529 99.846825,175.167526 
	C99.856094,175.295303 99.674042,175.580246 99.257782,175.975632 
z"/>
<path fill="#184891" opacity="1.000000" stroke="none" 
	d="
M74.153259,157.193710 
	C74.362381,157.155396 74.559074,157.391632 74.866348,157.832397 
	C74.710266,157.837357 74.431564,157.647797 74.153259,157.193710 
z"/>
<path fill="#0D4798" opacity="1.000000" stroke="none" 
	d="
M114.288078,160.812714 
	C114.165085,160.634262 114.293007,160.415848 114.599472,160.086823 
	C114.837296,160.271545 114.757622,160.537064 114.288078,160.812714 
z"/>
<path fill="#184891" opacity="1.000000" stroke="none" 
	d="
M83.063339,166.237411 
	C83.214928,166.209106 83.452705,166.432404 83.839378,166.853516 
	C83.722328,166.849380 83.442741,166.661926 83.063339,166.237411 
z"/>
<path fill="#184891" opacity="1.000000" stroke="none" 
	d="
M84.068329,167.247406 
	C84.147522,167.009003 84.321350,167.003632 84.756844,166.990997 
	C85.016663,167.158905 85.014816,167.334106 84.996658,167.771851 
	C84.707886,167.849731 84.435432,167.665085 84.068329,167.247406 
z"/>
<path fill="#184891" opacity="1.000000" stroke="none" 
	d="
M85.050049,168.244049 
	C85.239479,168.177475 85.488708,168.392761 85.853523,168.844284 
	C85.714569,168.858734 85.428139,168.673874 85.050049,168.244049 
z"/>
<path fill="#184891" opacity="1.000000" stroke="none" 
	d="
M86.058670,169.241989 
	C86.209854,169.222488 86.464569,169.445557 86.863998,169.879242 
	C86.726532,169.888092 86.444366,169.686340 86.058670,169.241989 
z"/>
<path fill="#0D4798" opacity="1.000000" stroke="none" 
	d="
M105.256599,169.916534 
	C105.195137,169.742569 105.393814,169.510178 105.809036,169.166840 
	C105.939789,169.369110 105.770180,169.636505 105.256599,169.916534 
z"/>
<path fill="#0D4798" opacity="1.000000" stroke="none" 
	d="
M24.054090,80.259178 
	C24.228596,80.203407 24.468065,80.413406 24.827974,80.842621 
	C24.698574,80.852524 24.422123,80.673561 24.054090,80.259178 
z"/>
<path fill="#0D4798" opacity="1.000000" stroke="none" 
	d="
M25.057495,81.257294 
	C25.231688,81.195236 25.467108,81.394867 25.818291,81.808395 
	C25.610540,81.950150 25.338764,81.782372 25.057495,81.257294 
z"/>
<path fill="#0D4798" opacity="1.000000" stroke="none" 
	d="
M30.145760,85.231903 
	C30.312540,85.134621 30.533512,85.280815 30.877424,85.598564 
	C30.686691,85.824203 30.419888,85.725960 30.145760,85.231903 
z"/>
<path fill="#0D4798" opacity="1.000000" stroke="none" 
	d="
M32.037357,86.253967 
	C32.208015,86.189209 32.448357,86.384727 32.807411,86.795387 
	C32.603378,86.938988 32.330349,86.773567 32.037357,86.253967 
z"/>
<path fill="#0D4798" opacity="1.000000" stroke="none" 
	d="
M33.117096,87.253036 
	C33.287720,87.138359 33.515541,87.273766 33.856422,87.596497 
	C33.664131,87.833527 33.399067,87.739960 33.117096,87.253036 
z"/>
<path fill="#0D4798" opacity="1.000000" stroke="none" 
	d="
M39.736465,89.887085 
	C39.998844,89.854172 40.044842,90.309158 40.063717,90.537140 
	C39.779694,90.658585 39.476795,90.552048 39.061943,90.218231 
	C39.124687,89.967308 39.299385,89.943657 39.736465,89.887085 
z"/>
<path fill="#0E4899" opacity="1.000000" stroke="none" 
	d="
M173.242523,73.946487 
	C173.183334,73.780212 173.381821,73.535461 173.790985,73.163261 
	C173.929245,73.363930 173.762070,73.641327 173.242523,73.946487 
z"/>
<path fill="#0D4798" opacity="1.000000" stroke="none" 
	d="
M121.251251,152.930695 
	C121.187744,152.747620 121.395844,152.509003 121.829712,152.158600 
	C121.843361,152.292755 121.665825,152.568863 121.251251,152.930695 
z"/>
<path fill="#0D4798" opacity="1.000000" stroke="none" 
	d="
M24.761829,56.778374 
	C24.563444,56.807514 24.382776,56.575481 24.122486,56.129845 
	C24.352350,56.027882 24.597910,56.228199 24.761829,56.778374 
z"/>
<path fill="#0D4798" opacity="1.000000" stroke="none" 
	d="
M73.110962,133.288284 
	C72.998550,133.123322 73.409508,133.093018 73.615250,133.081696 
	C73.836502,133.237503 73.852020,133.404648 73.806778,133.816895 
	C73.555252,133.873276 73.381042,133.670364 73.110962,133.288284 
z"/>
<path fill="#0D4798" opacity="1.000000" stroke="none" 
	d="
M60.141075,141.249023 
	C60.313911,141.191116 60.538578,141.389618 60.861031,141.809143 
	C60.668644,141.916473 60.413338,141.741562 60.141075,141.249023 
z"/>
<path fill="#0C428E" opacity="1.000000" stroke="none" 
	d="
M105.746704,148.057281 
	C105.812729,148.249878 105.595192,148.496109 105.131859,148.844543 
	C105.119171,148.704132 105.311539,148.425522 105.746704,148.057281 
z"/>
<path fill="#0D4798" opacity="1.000000" stroke="none" 
	d="
M103.740509,150.030746 
	C103.807404,150.212738 103.599953,150.461700 103.169792,150.836456 
	C103.153625,150.701996 103.326660,150.413818 103.740509,150.030746 
z"/>
<path fill="#0D4798" opacity="1.000000" stroke="none" 
	d="
M122.241379,151.922882 
	C122.144737,151.753067 122.304672,151.509766 122.649895,151.128326 
	C122.873146,151.326447 122.760735,151.612839 122.241379,151.922882 
z"/>
<path fill="#0D4798" opacity="1.000000" stroke="none" 
	d="
M68.687889,105.162567 
	C67.231255,106.617989 65.463387,108.195099 63.369385,109.871857 
	C64.821053,108.409096 66.598854,106.846672 68.687889,105.162567 
z"/>
<path fill="#0D4798" opacity="1.000000" stroke="none" 
	d="
M71.838638,102.198959 
	C72.294952,102.559532 72.509399,103.075005 72.772011,103.870331 
	C72.125046,104.106964 71.429901,104.063744 70.386307,104.015228 
	C70.557495,103.457916 71.077133,102.905891 71.838638,102.198959 
z"/>
<path fill="#0D4798" opacity="1.000000" stroke="none" 
	d="
M62.805992,110.188080 
	C62.770370,110.256432 62.565926,110.468254 62.191559,110.821991 
	C62.229694,110.755852 62.434868,110.545059 62.805992,110.188080 
z"/>
<path fill="#0349A8" opacity="1.000000" stroke="none" 
	d="
M146.693054,89.734154 
	C146.183853,90.602638 145.446823,91.253288 144.431732,92.012604 
	C140.986801,91.044228 137.483917,90.184143 139.992523,85.176804 
	C140.529587,84.877220 140.959808,84.912262 141.714294,84.972580 
	C143.514114,86.504005 144.989670,88.010162 146.693054,89.734154 
z"/>
<path fill="#0D4798" opacity="1.000000" stroke="none" 
	d="
M69.916962,119.340347 
	C70.975342,123.458115 71.924355,127.869408 72.877319,132.646912 
	C71.856720,128.553360 70.832153,124.093620 69.916962,119.340347 
z"/>
<path fill="#00419F" opacity="1.000000" stroke="none" 
	d="
M119.970627,103.908348 
	C119.982246,102.858002 119.993866,101.807648 120.017120,100.362503 
	C122.942398,103.108261 125.856033,106.248825 128.895218,109.702713 
	C129.020767,110.016052 129.021851,110.029663 128.705399,109.898079 
	C125.582840,107.813782 122.776733,105.861069 119.970627,103.908348 
z"/>
<path fill="#0C428E" opacity="1.000000" stroke="none" 
	d="
M130.792587,110.985306 
	C131.031830,111.148819 131.054291,111.535164 131.069580,111.727432 
	C131.084869,111.919693 131.043381,111.958679 130.784241,111.825394 
	C130.024017,111.137962 129.522934,110.583809 129.021851,110.029663 
	C129.021851,110.029663 129.020767,110.016052 129.025070,110.018448 
	C129.537369,110.287827 130.045349,110.554810 130.792587,110.985306 
z"/>
<path fill="#0349A8" opacity="1.000000" stroke="none" 
	d="
M137.163681,82.201721 
	C137.579819,82.470955 138.170456,82.976265 138.937469,83.717209 
	C138.521973,83.447830 137.930069,82.942810 137.163681,82.201721 
z"/>
<path fill="#074297" opacity="1.000000" stroke="none" 
	d="
M119.177292,138.174637 
	C119.255440,138.217575 119.520454,138.443314 119.982941,138.844147 
	C119.908325,138.798660 119.636238,138.578033 119.177292,138.174637 
z"/>
<path fill="#014AAB" opacity="1.000000" stroke="none" 
	d="
M128.705399,109.898071 
	C129.522934,110.583809 130.024017,111.137962 130.763596,111.845001 
	C130.767746,114.130371 130.533417,116.262856 130.149063,118.697449 
	C129.999054,118.999542 129.995819,119.002510 129.825012,119.162277 
	C129.429520,119.538445 129.212830,119.762558 129.001312,119.996635 
	C128.998520,119.998901 128.993515,120.004745 128.781464,120.187302 
	C128.054108,120.906609 127.538795,121.443375 127.012070,121.989532 
	C127.000648,121.998924 126.979927,122.020027 126.680984,122.163864 
	C125.260559,123.871429 124.139069,125.435158 122.846375,127.168167 
	C122.446548,127.563194 122.217506,127.788498 121.988029,128.013351 
	C121.552528,127.322716 120.573524,126.366234 120.762047,125.980843 
	C124.296112,118.755875 118.855766,111.909714 119.965691,104.366653 
	C122.776733,105.861069 125.582840,107.813782 128.705399,109.898071 
z"/>
<path fill="#0349A8" opacity="1.000000" stroke="none" 
	d="
M121.952682,128.234619 
	C122.217506,127.788498 122.446548,127.563194 123.094650,126.962257 
	C124.669403,125.064720 125.824669,123.542381 126.979935,122.020035 
	C126.979927,122.020027 127.000648,121.998924 127.238434,121.824005 
	C127.981979,121.100975 128.487747,120.552856 128.993515,120.004745 
	C128.993515,120.004745 128.998520,119.998901 129.171341,119.836189 
	C129.567535,119.455811 129.784760,119.232155 129.995819,119.002510 
	C129.995819,119.002510 129.999054,118.999542 129.999100,118.996460 
	C130.650558,120.782623 131.301956,122.571877 131.989960,124.669601 
	C128.837479,126.330864 125.648376,127.683662 122.153519,128.967560 
	C121.847771,128.898651 121.917343,128.455902 121.952682,128.234619 
z"/>
<path fill="#034AAA" opacity="1.000000" stroke="none" 
	d="
M124.400337,84.824158 
	C123.070305,85.433662 121.880623,85.800583 120.690941,86.167503 
	C120.977623,85.037331 121.264305,83.907166 121.550987,82.776993 
	C122.547554,83.378517 123.544121,83.980049 124.400337,84.824158 
z"/>
<path fill="#0C428E" opacity="1.000000" stroke="none" 
	d="
M126.680984,122.163864 
	C125.824669,123.542381 124.669403,125.064720 123.265862,126.792976 
	C124.139069,125.435158 125.260559,123.871429 126.680984,122.163864 
z"/>
<path fill="#0C428E" opacity="1.000000" stroke="none" 
	d="
M128.781464,120.187302 
	C128.487747,120.552856 127.981979,121.100975 127.249847,121.814606 
	C127.538795,121.443375 128.054108,120.906609 128.781464,120.187302 
z"/>
<path fill="#0C428E" opacity="1.000000" stroke="none" 
	d="
M129.825012,119.162277 
	C129.784760,119.232155 129.567535,119.455811 129.174133,119.833923 
	C129.212830,119.762558 129.429520,119.538445 129.825012,119.162277 
z"/>
</svg>